<svg version="1.2" xmlns="http://www.w3.org/2000/svg" viewBox="0 0 251 180" width="251" height="180">
	<title>deepl-desktop-svg-svg</title>
	<style>
		.s0 {
			opacity: .6;
			fill: #dde3e9
		}

		.s1 {
			fill: none;
			stroke: #FFC857;
			stroke-width: 2
		}

		.s2 {
			fill: none;
			stroke: #0F2B46;
			stroke-width: 2
		}

		.s3 {
			fill: #0F2B46
		}

		.s4 {
			fill: none;
			stroke: #0F2B46;
			stroke-width: 3
		}
	</style>
	<path id="Layer" class="s0"
		d="m40 15.2q0.4-0.3 1-0.4 0.5-0.2 1-0.2 0.5 0 1.1 0.2 0.5 0.1 0.9 0.4l35.9 20.4q0.4 0.3 0.8 0.6 0.4 0.4 0.7 0.9 0.2 0.4 0.4 0.9 0.1 0.5 0.1 1.1v40.8q0 0.6-0.1 1.1-0.2 0.5-0.4 0.9-0.3 0.5-0.7 0.9-0.4 0.3-0.8 0.6l-35.9 20.4q-0.4 0.3-0.9 0.4-0.6 0.2-1.1 0.2-0.5 0-1-0.2-0.6-0.1-1-0.4l-35.9-20.4q-0.4-0.3-0.8-0.6-0.4-0.4-0.6-0.9-0.3-0.4-0.4-0.9-0.2-0.5-0.2-1.1v-40.8q0-0.6 0.2-1.1 0.1-0.5 0.4-0.9 0.2-0.5 0.6-0.9 0.4-0.3 0.8-0.6z" />
	<path id="Layer" class="s1"
		d="m17.2 2.4l13.3 7.6q0.1 0.1 0.2 0.2 0.1 0.1 0.2 0.2 0.1 0.1 0.1 0.2 0 0.2 0 0.3v15.2q0 0.1 0 0.3 0 0.1-0.1 0.2-0.1 0.1-0.2 0.2-0.1 0.1-0.2 0.2l-13.3 7.6q-0.1 0-0.2 0.1-0.2 0-0.3 0-0.1 0-0.3 0-0.1-0.1-0.2-0.1l-13.3-7.6q-0.1-0.1-0.2-0.2-0.1-0.1-0.2-0.2-0.1-0.1-0.1-0.2 0-0.2 0-0.3v-15.2q0-0.1 0-0.3 0-0.1 0.1-0.2 0.1-0.1 0.2-0.2 0.1-0.1 0.2-0.2l13.3-7.6q0.1 0 0.2-0.1 0.2 0 0.3 0 0.1 0 0.3 0 0.1 0.1 0.2 0.1z" />
	<path id="Layer" class="s2"
		d="m31.4 53c0-8.8 7.1-16 16-16h185.6c8.8 0 16 7.2 16 16v99c0 8.8-7.2 16-16 16h-185.6c-8.9 0-16-7.2-16-16z" />
	<path id="&lt;/&gt;" class="s3" aria-label="&lt;/&gt;"
		d="m130.9 113.5l-12.4-7.2v-2.3l12.4-7.2v2.4l-10.3 5.8v0.2l10.3 5.9zm7.2 4.4h-2.1l10.1-26h2.1zm15.2-4.5v-2.4l10.3-5.8v-0.2l-10.3-5.9v-2.4l12.4 7.2v2.3z" />
	<path id="Layer" class="s4"
		d="m34.9 176c0-0.8 0.7-1.5 1.5-1.5h210.6c0.8 0 1.5 0.7 1.5 1.5 0 0.8-0.7 1.5-1.5 1.5h-210.6c-0.8 0-1.5-0.7-1.5-1.5z" />
</svg>