<svg version="1.2" xmlns="http://www.w3.org/2000/svg" viewBox="0 0 397 398" width="397" height="398">
	<title>Robot group-svg</title>
	<defs>
		<clipPath clipPathUnits="userSpaceOnUse" id="cp1">
			<path d="m384.44 447.37l-439.44-61.34 51.56-369.36 439.44 61.34z"/>
		</clipPath>
	</defs>
	<style>
		.s0 { fill: #efefef } 
		.s1 { fill: #006494 } 
		.s2 { opacity: .5;fill: #0f2b46 } 
		.s3 { fill: none;stroke: #cecece;stroke-width: .8 } 
		.s4 { fill: #0f2b46 } 
		.s5 { fill: #2292a4 } 
		.s6 { fill: #ffffff;stroke: #f4f9fd } 
	</style>
	<g id="Clip-Path" clip-path="url(#cp1)">
		<g id="Layer">
			<path id="Layer" class="s0" d="m132 344.6c-15-10.5-17.9-29.6-6.6-42.6 11.3-13 32.6-15 47.6-4.5 15 10.5 17.9 29.6 6.6 42.6-11.3 12.9-32.6 15-47.6 4.5z"/>
			<path id="Layer" class="s0" d="m255 254.6c0 0-34 107.9-99.1 129.5l-35.3-9.2c0 0-60.1-48.1 0.5-169.4z"/>
			<path id="Layer" class="s1" d="m121.1 205.5c1.9-4.3 33.4 3.2 70.3 16.7 37 13.6 65.4 28.1 63.6 32.4-1.9 4.3-33.4-3.2-70.3-16.8-37-13.5-65.4-28-63.6-32.3z"/>
			<path id="Layer" class="s2" d="m152 216.8c1-2.3 18 1.7 37.9 9 19.9 7.4 35.2 15.2 34.2 17.5-1 2.3-18-1.7-37.9-9.1-19.9-7.3-35.2-15.1-34.2-17.4z"/>
			<path id="Layer" class="s0" d="m356.9 157.5c-0.5-0.4-0.6-1-0.2-1.4 0.3-0.4 1-0.5 1.5-0.1 0.5 0.3 0.6 0.9 0.2 1.3-0.4 0.4-1 0.5-1.5 0.2zm-95.4 100.6c-1.6-1.2-2-3.2-0.7-4.6 1.2-1.4 3.5-1.6 5.1-0.5 1.6 1.1 1.9 3.2 0.7 4.6-1.2 1.4-3.5 1.6-5.1 0.5zm97.4-89.4c-1.6-1.2-1.9-3.2-0.7-4.6 1.2-1.4 3.5-1.6 5.1-0.5 1.6 1.1 1.9 3.2 0.7 4.6-1.2 1.4-3.5 1.6-5.1 0.5zm-97.2 110c-1.7-1.3-2.1-3.5-0.7-5.1 1.3-1.5 3.8-1.8 5.6-0.5 1.8 1.2 2.1 3.5 0.8 5-1.3 1.6-3.9 1.8-5.7 0.6z"/>
			<path id="Layer" class="s0" d="m262.5 252.4c0 0 54.9-26.8 95.7-88.3l5.8 4.1c0 0-32.5 74.5-97.2 110.5l-6.7-3.2v-19.7zm87.9-103.6c-1.4-1-1.7-2.8-0.6-4.1 1-1.2 3.1-1.4 4.5-0.4 1.4 1 1.7 2.8 0.6 4-1.1 1.3-3.1 1.5-4.5 0.5zm1.9 13c-1.1-0.8-1.3-2.2-0.5-3.1 0.8-1 2.4-1.1 3.5-0.3 1.1 0.7 1.3 2.1 0.4 3-0.8 1-2.3 1.1-3.4 0.4z"/>
			<path id="Layer" class="s0" d="m355.5 146.2l2.9 9.9v1.2l-2.7 4.1-4.4-1.5-2.2-13.3zm25.9 4.9c-1.7-1.2-2.1-3.5-0.8-5 1.4-1.5 3.9-1.7 5.6-0.5 1.8 1.2 2.1 3.5 0.8 5-1.3 1.5-3.8 1.7-5.6 0.5zm0.9 13.6c-1.6-1.1-1.9-3-0.7-4.4 1.1-1.3 3.3-1.5 4.9-0.4 1.5 1 1.8 3 0.6 4.3-1.1 1.4-3.3 1.6-4.8 0.5z"/>
			<path id="Layer" fill-rule="evenodd" class="s0" d="m386.7 150.8l-15.5 13.7-4-7.2 13.9-11.7zm0.2 13.6l-11.8 10.9-2.6-7.3 9.3-7.9zm-375.8 102c-0.8 2.4-3.5 3.5-6 2.4-2.5-1.2-3.9-4.1-3.1-6.5 0.9-2.5 3.5-3.5 6-2.4 2.5 1.1 3.9 4 3.1 6.5zm88.2-56.6c-2.1-1.2-2.8-3.6-1.5-5.5 1.2-1.9 4-2.5 6.1-1.4 2.1 1.2 2.8 3.6 1.6 5.5-1.3 1.9-4 2.5-6.2 1.4z"/>
			<path id="Layer" fill-rule="evenodd" class="s0" d="m3 260.9c43-46.2 106.1-60.3 106.1-60.3l6.2 10.2-16.6 19.9-2.5 1.4c-61.9 21.5-87 36.5-87 36.5zm124.6-72.7c-0.6 0.6-0.8 1.4-0.7 2.2q0 0.3 0.2 0.6 0.1 0.3 0.2 0.6 0.2 0.3 0.4 0.5 0.2 0.2 0.5 0.4c36.4 26.9 77.2 43.6 124 49.9q0.5 0.1 1 0.1 0.5 0 0.9-0.1 0.5-0.1 1-0.3 0.4-0.2 0.8-0.5c1.1-0.7 1.8-1.8 1.9-2.9 1.6-10.7 3-19.6 2.4-28-1.8-13.9-10.8-25-24.5-35.3-30.3-22.9-70.1-21.1-87.9-7.5-7.5 5.6-16.3 15.7-20.2 20.3z"/>
			<path id="Layer" class="s3" d="m229.8 171.5c0 0 20.2 14.3 17.9 30.8l-7.6 38.5"/>
			<path id="Layer" class="s4" d="m196.9 187.6q0.2 0.1 0.3 0.2 0.2 0.1 0.4 0.3 0.1 0.1 0.2 0.3 0.1 0.2 0.2 0.4 0.1 0.2 0.1 0.4 0 0.1 0 0.3 0 0.2 0 0.4l-1.2 3.9q-0.1 0.2-0.2 0.4-0.1 0.1-0.2 0.3-0.1 0.1-0.3 0.2-0.2 0.1-0.3 0.2c-0.5 0.2-1.1 0.3-1.7 0.2-0.5-0.2-1-0.5-1.3-0.9q-0.1-0.2-0.2-0.4-0.1-0.2-0.1-0.3 0-0.2 0-0.4 0-0.2 0-0.4l1.1-3.9q0.1-0.2 0.2-0.4 0.1-0.1 0.2-0.3 0.2-0.1 0.3-0.3 0.2-0.1 0.4-0.2 0.2-0.1 0.4-0.1 0.2-0.1 0.4-0.1 0.2 0 0.4 0 0.3 0 0.5 0.1 0.2 0 0.4 0.1zm43.7 12.2q0.1 0.1 0.3 0.2 0.2 0.1 0.3 0.3 0.1 0.1 0.3 0.3 0.1 0.1 0.1 0.3 0.1 0.2 0.1 0.3 0 0.2 0 0.4 0 0.2 0 0.4l-1.1 3.6q0 0.1-0.1 0.1 0 0.1 0 0.2-0.1 0.1-0.1 0.2-0.1 0-0.1 0.1-0.1 0.1-0.2 0.1 0 0.1-0.1 0.2-0.1 0-0.2 0.1-0.1 0-0.1 0.1-0.4 0.1-0.8 0.2-0.2 0-0.4 0-0.2 0-0.4-0.1-0.2 0-0.4-0.1-0.2-0.1-0.3-0.2-0.4-0.2-0.6-0.6 0 0-0.1-0.1 0-0.1 0-0.2-0.1-0.1-0.1-0.2 0-0.1 0-0.2-0.1 0-0.1-0.1 0-0.1 0-0.2 0.1-0.1 0.1-0.2 0-0.1 0-0.2l1.1-3.6q0-0.1 0-0.1 0.1-0.1 0.1-0.2 0.1-0.1 0.1-0.2 0.1 0 0.1-0.1 0.1-0.1 0.2-0.1 0-0.1 0.1-0.2 0.1 0 0.2-0.1 0 0 0.1-0.1 0.1 0 0.2 0 0.1-0.1 0.2-0.1 0.1 0 0.2-0.1 0.1 0 0.2 0 0.1 0 0.2 0 0.1 0 0.2 0 0.1 0 0.2 0 0.1 0.1 0.2 0.1 0.2 0 0.4 0.1z"/>
			<path id="Layer" class="s3" d="m173 159.7c0 0 16 8.5 13.8 24.9l-10.3 36.1"/>
			<path id="Layer" fill-rule="evenodd" class="s4" d="m224.7 204.6c-5.3 0.8-10.3-0.4-13.9-1.9-1.8-0.7-3.2-1.5-4.2-2.1q-0.8-0.5-1.2-0.8l-0.4-0.2v-0.1h-0.1l0.6-0.6-0.6 0.6c-0.3-0.3-0.4-0.7-0.1-1.1q0.1-0.1 0.3-0.2 0.1 0 0.3 0 0.2-0.1 0.3 0 0.2 0 0.3 0.1v0.1h0.1l0.3 0.2q0.4 0.2 1.1 0.7 0.5 0.3 1 0.5 0.5 0.3 1 0.6 0.5 0.2 1 0.4 0.5 0.3 1 0.5c3.4 1.4 8 2.5 12.9 1.8 0.4-0.1 0.9 0.2 1 0.6 0.1 0.4-0.2 0.8-0.7 0.9z"/>
			<path id="Layer" class="s0" d="m125.2 378.5c-14.7-10.4-17.6-29.2-6.5-42 11.2-12.8 32.2-14.8 46.9-4.4 14.8 10.3 17.7 29.1 6.5 41.9-11.1 12.8-32.1 14.8-46.9 4.5z"/>
			<path id="Layer" fill-rule="evenodd" class="s5" d="m143.4 235.2q0.1 0 0.2 0 0.2 0 0.3 0 0.1 0 0.2 0.1 0.1 0 0.2 0.1 0.1 0 0.2 0.1 0.1 0.1 0.2 0.2 0.1 0 0.2 0.1 0.1 0.1 0.2 0.2l5.3 7.4q0.1 0.1 0.2 0.2 0 0.1 0.1 0.2 0 0.1 0.1 0.2 0 0.1 0 0.3 0 0.1 0 0.2 0 0.1 0 0.2 0 0.1-0.1 0.2 0 0.1 0 0.2l-3.6 7.5q0 0.1-0.1 0.2 0 0.1-0.1 0.2-0.1 0.1-0.2 0.1 0 0.1-0.1 0.2-0.1 0-0.2 0.1-0.1 0-0.3 0.1-0.1 0-0.2 0-0.1 0-0.2 0l-5.7 0.1-0.6 1.2-0.7 1.6q0 0.1-0.1 0.2 0 0-0.1 0 0 0.1-0.1 0.1-0.1 0-0.1 0-0.1 0-0.2 0 0 0-0.1-0.1-0.1 0-0.1 0-0.1-0.1-0.1-0.1l-2.7-3.7-5.4-7.4q-0.1-0.1-0.1-0.2-0.1-0.1-0.1-0.2-0.1-0.1-0.1-0.2 0-0.2 0-0.3 0-0.1 0-0.2 0-0.1 0-0.2 0-0.1 0-0.2 0.1-0.1 0.1-0.2l3.5-7.5q0.1-0.1 0.1-0.2 0.1-0.1 0.2-0.2 0.1-0.1 0.1-0.2 0.1 0 0.2-0.1 0.1 0 0.2-0.1 0.1 0 0.2-0.1 0.2 0 0.3 0 0.1 0 0.2 0zm3.2 17.2l-0.4-0.3 3.5-7.5q0 0 0 0 0-0.1 0-0.1 0.1-0.1 0.1-0.1 0-0.1-0.1-0.1 0-0.1 0-0.1 0-0.1 0-0.1 0-0.1 0-0.1-0.1 0-0.1-0.1l-5.4-7.4q0 0-0.1-0.1-0.1-0.1-0.2-0.1-0.1-0.1-0.2-0.1-0.1 0-0.2 0l-8.9 0.1q0 0-0.1 0 0 0-0.1 0 0 0-0.1 0.1 0 0 0 0-0.1 0-0.1 0.1-0.1 0-0.1 0 0 0.1 0 0.1-0.1 0-0.1 0.1l-3.5 7.5q0 0 0 0.1-0.1 0-0.1 0.1 0 0 0 0 0 0.1 0 0.1 0 0.1 0 0.1 0.1 0.1 0.1 0.1 0 0.1 0 0.1 0 0.1 0.1 0.1l5.4 7.4 2.1 2.9 0.4-0.9 0.7-1.5q0 0 0.1-0.1 0 0 0.1 0 0-0.1 0.1-0.1 0 0 0.1 0l6-0.1q0 0 0 0 0.1 0 0.1 0 0.1 0 0.1 0 0.1-0.1 0.1-0.1 0.1 0 0.1 0 0-0.1 0.1-0.1 0 0 0-0.1 0 0 0.1-0.1z"/>
		</g>
	</g>
	<path id="Layer" class="s6" d="m253.1 101.3l-19-0.1c-11.4 0-20.5-9.3-20.5-20.7l0.2-53c0.1-11.4 9.3-20.5 20.6-20.5l139.8 0.6c11.3 0 20.5 9.3 20.4 20.6l-0.2 53.1c0 11.4-9.2 20.5-20.6 20.5l-98.4-0.4q-0.2 0-0.3 0-0.1 0-0.3 0.1-0.1 0-0.2 0.1-0.1 0.1-0.2 0.2c-3.9 3.6-19.1 10.1-30.4 10 3.4-1 8-4.1 10.3-8.9 0.3-0.8-0.3-1.6-1.2-1.6z"/>
	<path id="Layer" class="s4" d="m251.7 64.2l0.1-18.9h2.9l-0.1 8.2 9.4 0.1 0.1-8.2h2.8l-0.1 18.9h-2.9l0.1-8.2-9.4-0.1-0.1 8.2zm19.7 0.2l0.1-14.2h2.8l-0.1 14.2zm1.5-16.3q-0.2 0-0.3-0.1-0.2 0-0.4 0-0.1-0.1-0.3-0.2-0.1-0.1-0.2-0.2-0.1-0.1-0.2-0.3-0.1-0.1-0.2-0.2-0.1-0.2-0.1-0.4 0-0.1 0-0.3 0-0.1 0-0.3 0-0.2 0.1-0.3 0.1-0.2 0.2-0.3 0.1-0.1 0.2-0.2 0.1-0.2 0.3-0.2 0.1-0.1 0.3-0.2 0.1-0.1 0.3-0.1 0.2 0 0.3 0 0.7 0 1.3 0.5 0.1 0.1 0.2 0.2 0.1 0.2 0.1 0.3 0.1 0.2 0.1 0.3 0.1 0.2 0.1 0.4 0 0.1-0.1 0.3 0 0.1-0.1 0.3-0.1 0.1-0.1 0.3-0.1 0.1-0.3 0.2-0.1 0.1-0.2 0.2-0.2 0.1-0.3 0.2-0.2 0-0.4 0.1-0.1 0-0.3 0zm5.6 16.4l0.1-14.2h2.7v2.3h0.1q0.4-1.2 1.4-1.8 0.2-0.2 0.5-0.3 0.3-0.1 0.6-0.2 0.2-0.1 0.5-0.1 0.3 0 0.6 0 0.3 0 0.6 0 0.4 0 0.6 0v2.7q-0.1 0-0.2-0.1-0.1 0-0.1 0-0.1 0-0.2 0-0.1 0-0.1 0-0.1-0.1-0.2-0.1-0.1 0-0.2 0-0.2 0-0.3 0-0.1 0-0.2 0-0.2 0-0.4 0-0.2 0-0.5 0.1-0.2 0-0.4 0.1-0.2 0.1-0.4 0.2-0.4 0.2-0.7 0.5-0.3 0.3-0.5 0.6-0.3 0.4-0.4 0.8-0.1 0.4-0.1 0.8l-0.1 8.7zm16.2 0.4q-2 0-3.5-0.9-0.4-0.2-0.8-0.5-0.3-0.3-0.6-0.6-0.3-0.3-0.5-0.7-0.3-0.4-0.4-0.8-0.8-1.6-0.8-3.8 0-2.2 0.8-3.8 0.9-1.7 2.3-2.6 1.5-0.9 3.5-0.9 0.3 0 0.6 0 0.3 0.1 0.6 0.1 0.3 0.1 0.5 0.1 0.3 0.1 0.6 0.2 0.3 0.1 0.6 0.3 0.2 0.1 0.5 0.2 0.2 0.2 0.5 0.4 0.2 0.2 0.4 0.4 0.9 0.8 1.4 2.2 0.5 1.3 0.5 3.3v0.9l-11.3-0.1v-2l8.6 0.1q0-0.3 0-0.5 0-0.3-0.1-0.5 0-0.3-0.1-0.5-0.1-0.2-0.2-0.5-0.1-0.2-0.3-0.4-0.1-0.2-0.2-0.3-0.2-0.2-0.4-0.3-0.2-0.2-0.4-0.3-0.2-0.1-0.4-0.2-0.2-0.1-0.5-0.2-0.2-0.1-0.4-0.1-0.3 0-0.5 0-0.3 0-0.5 0-0.3 0-0.6 0.1-0.2 0.1-0.5 0.2-0.2 0.1-0.4 0.2-0.9 0.6-1.4 1.5-0.5 0.9-0.5 2v1.6q0 1.4 0.5 2.4 0.5 1 1.4 1.5 0.9 0.5 2.1 0.6 0.8 0 1.4-0.3 0.7-0.2 1.1-0.6 0.5-0.5 0.8-1.1l2.6 0.5q-0.1 0.2-0.2 0.5-0.1 0.3-0.3 0.5-0.1 0.3-0.3 0.5-0.2 0.3-0.4 0.5-0.8 0.8-2 1.3-0.3 0.1-0.7 0.2-0.3 0.1-0.7 0.1-0.3 0.1-0.6 0.1-0.4 0-0.8 0zm17.4-0.1l0.1-14.2 2.6 0.1v2.3h0.2q0.4-1.2 1.5-1.8 1-0.7 2.4-0.7 1.4 0 2.3 0.7 1 0.7 1.5 1.8h0.1q0.5-1.1 1.6-1.7 1.1-0.7 2.7-0.7 1.9 0 3.1 1.2 1.2 1.2 1.2 3.7l-0.1 9.5-2.7-0.1v-9.2q0.1-1.4-0.7-2.1-0.2-0.1-0.4-0.3-0.3-0.1-0.5-0.2-0.2-0.1-0.5-0.1-0.2 0-0.5 0-1.3-0.1-2.1 0.8-0.7 0.8-0.8 2.1v9h-2.8l0.1-9.4q0-1.2-0.7-1.9-0.7-0.7-1.9-0.7-0.2 0-0.3 0-0.2 0-0.4 0.1-0.2 0-0.4 0.1-0.2 0.1-0.3 0.2-0.2 0.1-0.3 0.2-0.2 0.1-0.3 0.3-0.2 0.1-0.3 0.3-0.1 0.1-0.2 0.3-0.1 0.2-0.2 0.4 0 0.2-0.1 0.4 0 0.2-0.1 0.5 0 0.2 0 0.4l-0.1 8.7zm29.7 0.6q-2.1 0-3.6-1-0.3-0.2-0.7-0.5-0.3-0.2-0.6-0.6-0.3-0.3-0.5-0.7-0.3-0.3-0.5-0.7-0.8-1.7-0.8-3.9 0.1-2.1 0.9-3.8 0.2-0.4 0.4-0.7 0.3-0.4 0.6-0.7 0.3-0.4 0.6-0.6 0.3-0.3 0.7-0.6 1.5-0.9 3.5-0.9 1.2 0.1 2.3 0.5 1.1 0.4 2 1.2 0.9 0.9 1.4 2.2 0.5 1.4 0.5 3.3l-0.1 1-11.2-0.1v-2.1l8.6 0.1q0-0.2-0.1-0.5 0-0.2 0-0.5-0.1-0.2-0.2-0.5 0-0.2-0.2-0.4-0.1-0.2-0.2-0.4-0.1-0.2-0.3-0.4-0.1-0.2-0.3-0.3-0.2-0.1-0.4-0.3-0.2-0.1-0.4-0.2-0.2-0.1-0.5-0.2-0.2 0-0.5 0-0.2-0.1-0.4-0.1-0.3 0-0.6 0-0.2 0.1-0.5 0.1-0.3 0.1-0.5 0.2-0.3 0.1-0.5 0.3-0.2 0.1-0.4 0.3-0.2 0.1-0.3 0.3-0.2 0.2-0.4 0.4-0.1 0.2-0.2 0.4-0.5 0.9-0.5 2v1.6q0 1.4 0.5 2.4 0.5 1 1.4 1.6 0.9 0.5 2.1 0.5 0.7 0 1.4-0.2 0.3-0.1 0.6-0.3 0.3-0.2 0.5-0.4 0.3-0.2 0.4-0.5 0.2-0.3 0.3-0.6l2.6 0.5q0 0.3-0.1 0.6-0.2 0.2-0.3 0.5-0.1 0.2-0.3 0.5-0.2 0.2-0.4 0.4-0.8 0.9-2 1.3-0.4 0.1-0.7 0.2-0.3 0.1-0.7 0.2-0.3 0-0.7 0.1-0.3 0-0.7 0zm21-19l-0.4 13.4h-2.5l-0.2-13.4zm-1.6 19q-0.2 0-0.4 0-0.2-0.1-0.3-0.1-0.2-0.1-0.4-0.2-0.1-0.1-0.2-0.2-0.2-0.2-0.3-0.3-0.1-0.2-0.1-0.3-0.1-0.2-0.1-0.4-0.1-0.2-0.1-0.4 0-0.1 0.1-0.3 0-0.2 0.1-0.4 0-0.1 0.2-0.3 0.1-0.1 0.2-0.2 0.1-0.2 0.3-0.3 0.1-0.1 0.3-0.1 0.2-0.1 0.3-0.1 0.2-0.1 0.4-0.1 0.2 0 0.4 0.1 0.1 0 0.3 0.1 0.2 0 0.3 0.2 0.2 0.1 0.3 0.2 0.2 0.2 0.3 0.5 0.2 0.2 0.2 0.6 0 0.3 0 0.6-0.1 0.3-0.2 0.5-0.1 0.1-0.2 0.2-0.1 0.1-0.1 0.2-0.1 0.1-0.2 0.1-0.1 0.1-0.2 0.2-0.1 0-0.2 0.1-0.1 0-0.3 0.1-0.1 0-0.2 0-0.1 0-0.2 0z"/>
</svg>