<?xml version="1.0" standalone="no"?>
<!DOCTYPE svg PUBLIC "-//W3C//DTD SVG 20010904//EN"
 "http://www.w3.org/TR/2001/REC-SVG-20010904/DTD/svg10.dtd">
<svg version="1.0" xmlns="http://www.w3.org/2000/svg"
 width="1088.000000pt" height="1088.000000pt" viewBox="0 0 1088.000000 1088.000000"
 preserveAspectRatio="xMidYMid meet">
<metadata>
Created by potrace 1.14, written by Peter Selinger 2001-2017
</metadata>
<g transform="translate(0.000000,1088.000000) scale(0.100000,-0.100000)"
fill="#000000" stroke="none">
<path d="M5342 10869 c-13 -5 -28 -7 -32 -4 -5 3 -11 1 -15 -5 -3 -5 -12 -10
-20 -10 -8 0 -24 -4 -37 -9 -13 -5 -27 -9 -31 -9 -4 -1 -19 -10 -34 -22 -14
-11 -30 -20 -35 -20 -5 0 -33 -16 -62 -35 -29 -19 -58 -35 -65 -35 -6 0 -11
-4 -11 -10 0 -5 -6 -10 -13 -10 -7 0 -28 -11 -47 -23 -33 -22 -59 -37 -177
-103 -27 -15 -52 -30 -58 -34 -5 -5 -93 -56 -195 -115 -102 -59 -198 -116
-215 -126 -16 -10 -37 -22 -45 -26 -8 -4 -69 -39 -135 -78 -66 -39 -127 -74
-135 -78 -8 -4 -33 -18 -55 -32 -22 -14 -52 -30 -67 -36 -16 -6 -28 -15 -28
-20 0 -5 -4 -9 -9 -9 -8 0 -184 -100 -206 -117 -5 -4 -35 -21 -65 -37 -30 -16
-62 -34 -70 -41 -8 -7 -25 -16 -37 -19 -13 -4 -23 -12 -23 -17 0 -5 -4 -9 -9
-9 -5 0 -72 -37 -150 -82 -78 -46 -149 -87 -159 -93 -9 -5 -106 -62 -215 -125
-109 -63 -218 -126 -242 -140 -126 -71 -303 -176 -327 -192 -16 -11 -28 -16
-28 -11 0 4 -4 3 -8 -3 -9 -13 -129 -84 -143 -84 -5 0 -9 -4 -9 -10 0 -5 -4
-10 -9 -10 -4 0 -86 -46 -182 -101 -96 -56 -188 -110 -206 -120 -17 -10 -49
-28 -70 -41 -21 -13 -49 -29 -63 -36 -27 -13 -62 -34 -70 -42 -3 -3 -21 -14
-40 -24 -63 -35 -72 -41 -103 -66 -97 -80 -161 -170 -205 -292 l-27 -73 -2
-2240 c-3 -2493 -8 -2308 65 -2450 20 -38 41 -76 47 -84 29 -39 151 -152 179
-165 17 -8 48 -26 69 -40 21 -14 44 -26 52 -26 8 0 15 -4 15 -8 0 -7 67 -47
127 -76 13 -6 23 -14 23 -18 0 -5 5 -8 11 -8 6 0 43 -20 82 -43 40 -24 99 -59
132 -77 33 -18 62 -36 65 -40 3 -4 19 -13 35 -21 64 -32 181 -99 255 -147 14
-9 27 -17 30 -17 3 -1 21 -11 40 -23 19 -11 39 -21 44 -21 5 1 12 -3 15 -8 5
-7 229 -140 321 -190 14 -8 39 -23 55 -33 17 -11 49 -29 72 -40 24 -11 43 -25
43 -30 0 -6 7 -10 15 -10 8 0 46 -20 84 -44 38 -25 71 -43 74 -40 2 2 10 -2
17 -11 7 -8 19 -15 26 -15 8 0 14 -4 14 -10 0 -5 4 -10 10 -10 5 0 47 -22 93
-50 46 -27 88 -50 94 -50 6 0 13 -4 15 -8 3 -7 132 -84 266 -159 31 -17 62
-36 69 -42 7 -6 14 -11 17 -11 6 0 220 -123 226 -130 3 -3 34 -21 70 -39 36
-19 67 -37 70 -40 3 -3 14 -11 25 -17 108 -59 140 -78 143 -85 2 -5 12 -9 23
-9 10 0 19 -3 19 -8 0 -4 21 -18 48 -32 26 -13 49 -27 52 -30 3 -3 16 -11 30
-18 51 -26 140 -78 152 -90 7 -7 16 -12 20 -12 4 0 53 -27 109 -60 55 -33 105
-60 110 -60 5 0 9 -4 9 -10 0 -5 4 -10 9 -10 5 0 44 -20 85 -45 42 -25 81 -45
85 -45 5 0 11 -4 13 -8 2 -4 30 -23 63 -41 120 -68 193 -110 230 -132 17 -10
39 -23 50 -29 11 -6 38 -21 60 -34 22 -12 85 -49 140 -81 55 -31 110 -64 122
-71 13 -8 24 -13 26 -12 1 2 9 -3 17 -10 13 -11 165 -101 315 -186 22 -13 63
-36 90 -53 28 -16 57 -32 65 -36 8 -4 33 -19 55 -32 22 -14 48 -28 58 -32 9
-3 17 -9 17 -14 0 -5 5 -9 10 -9 6 0 40 -18 76 -40 36 -22 68 -40 70 -40 2 0
28 -16 58 -35 30 -19 57 -35 60 -35 2 0 39 -20 80 -45 42 -25 81 -45 86 -45 6
0 10 -4 10 -9 0 -5 8 -11 18 -15 9 -3 55 -28 102 -56 46 -27 86 -47 88 -45 2
2 3 133 2 292 -3 375 -1 1173 4 1288 2 68 9 103 26 143 13 28 27 52 32 52 4 0
8 6 8 13 0 6 16 23 36 37 19 14 41 30 47 35 7 6 36 23 66 39 30 15 61 34 68
42 8 8 21 14 29 14 8 0 14 5 14 10 0 6 6 10 14 10 7 0 19 7 26 15 7 8 16 13
20 10 5 -3 11 -1 14 3 7 12 181 112 194 112 6 0 12 4 14 8 2 5 23 20 48 34 25
14 101 58 170 98 151 88 175 102 220 126 19 11 37 21 40 24 7 7 43 29 60 37 8
4 65 36 125 71 61 36 146 86 190 111 44 26 87 50 95 54 8 4 29 16 45 26 47 29
158 93 182 105 13 6 23 14 23 19 0 4 5 7 10 7 6 0 77 39 158 87 81 47 172 100
202 116 30 17 66 38 80 47 14 9 78 47 142 84 143 82 238 170 289 268 30 59 59
138 67 182 4 23 7 1051 7 2286 0 1822 -2 2253 -13 2285 -15 45 -54 137 -62
145 -3 3 -12 18 -20 34 -31 61 -122 146 -227 211 -57 36 -106 65 -109 65 -2 0
-21 11 -42 23 -20 13 -57 35 -82 49 -25 14 -85 49 -135 78 -49 29 -110 64
-135 78 -25 14 -61 35 -80 47 -19 12 -42 25 -50 28 -8 4 -33 18 -55 32 -22 14
-47 28 -55 32 -8 3 -22 11 -30 18 -8 7 -41 26 -72 43 -63 34 -239 135 -278
161 -14 8 -28 14 -32 13 -5 -1 -8 2 -8 8 0 5 -4 10 -10 10 -5 0 -39 18 -75 40
-36 22 -67 40 -70 40 -3 0 -28 15 -57 33 -29 19 -73 45 -98 59 -25 14 -65 37
-90 52 -25 15 -53 29 -62 33 -10 3 -18 9 -18 13 0 4 -15 13 -32 21 -18 7 -35
15 -38 18 -5 6 -38 25 -100 58 -19 10 -37 21 -40 24 -4 6 -40 26 -140 80 -16
9 -35 21 -42 26 -7 6 -33 22 -58 35 -25 14 -85 48 -133 77 -49 28 -93 51 -98
51 -5 0 -9 5 -9 10 0 6 -4 10 -9 10 -5 0 -42 19 -81 43 -154 90 -186 108 -202
114 -10 3 -18 9 -18 14 0 5 -4 9 -8 9 -8 0 -196 107 -387 220 -45 27 -103 60
-130 76 -28 15 -63 35 -80 45 -35 21 -109 63 -180 104 -27 15 -67 39 -87 52
-21 12 -42 23 -48 23 -5 0 -10 3 -10 8 0 4 -10 12 -23 18 -12 6 -56 29 -97 51
-41 22 -86 42 -100 46 -14 3 -36 8 -50 12 -40 11 -223 14 -248 4z"/>
</g>
</svg>
